<svg width="1280" height="640" viewBox="0 0 1280 640" fill="none" xmlns="http://www.w3.org/2000/svg">
    <rect width="1280" height="640" fill="white" />
    <path
        d="M274.328 592.488C272.831 592.488 271.457 592.26 270.207 591.805C268.957 591.336 267.883 590.633 266.984 589.695C266.086 588.758 265.389 587.579 264.895 586.16C264.4 584.728 264.152 583.048 264.152 581.121C264.152 579.207 264.406 577.553 264.914 576.16C265.435 574.767 266.125 573.595 266.984 572.645C267.844 571.694 268.911 570.965 270.188 570.457C271.477 569.936 272.857 569.676 274.328 569.676C275.526 569.676 276.678 569.845 277.785 570.184C278.905 570.522 279.901 570.913 280.773 571.355V575.477H280.559C280.298 575.255 279.96 575.001 279.543 574.715C279.139 574.428 278.645 574.135 278.059 573.836C277.551 573.576 276.952 573.348 276.262 573.152C275.572 572.957 274.908 572.859 274.27 572.859C272.368 572.859 270.839 573.582 269.68 575.027C268.534 576.46 267.961 578.491 267.961 581.121C267.961 583.699 268.514 585.711 269.621 587.156C270.741 588.589 272.29 589.305 274.27 589.305C275.467 589.305 276.607 589.057 277.688 588.562C278.768 588.068 279.725 587.43 280.559 586.648H280.773V590.77C280.409 590.939 279.953 591.147 279.406 591.395C278.859 591.629 278.365 591.805 277.922 591.922C277.297 592.104 276.737 592.241 276.242 592.332C275.747 592.436 275.109 592.488 274.328 592.488ZM302.082 581.102C302.082 584.773 301.197 587.612 299.426 589.617C297.655 591.609 295.298 592.605 292.355 592.605C289.322 592.605 286.932 591.577 285.188 589.52C283.456 587.449 282.59 584.643 282.59 581.102C282.59 577.456 283.482 574.624 285.266 572.605C287.062 570.587 289.426 569.578 292.355 569.578C295.298 569.578 297.655 570.587 299.426 572.605C301.197 574.611 302.082 577.443 302.082 581.102ZM298.293 581.102C298.293 578.276 297.779 576.18 296.75 574.812C295.721 573.432 294.257 572.742 292.355 572.742C290.441 572.742 288.964 573.432 287.922 574.812C286.893 576.18 286.379 578.276 286.379 581.102C286.379 583.836 286.893 585.913 287.922 587.332C288.964 588.738 290.441 589.441 292.355 589.441C294.243 589.441 295.702 588.751 296.73 587.371C297.772 585.978 298.293 583.888 298.293 581.102ZM330.617 592V579.383C330.617 578.38 330.578 577.456 330.5 576.609C330.422 575.75 330.259 575.079 330.012 574.598C329.751 574.077 329.38 573.693 328.898 573.445C328.417 573.198 327.766 573.074 326.945 573.074C326.19 573.074 325.376 573.309 324.504 573.777C323.645 574.233 322.753 574.897 321.828 575.77C321.841 575.991 321.854 576.258 321.867 576.57C321.893 576.87 321.906 577.228 321.906 577.645V592H318.234V579.383C318.234 578.38 318.195 577.456 318.117 576.609C318.039 575.75 317.876 575.079 317.629 574.598C317.368 574.077 316.997 573.693 316.516 573.445C316.034 573.198 315.383 573.074 314.562 573.074C313.768 573.074 312.935 573.322 312.062 573.816C311.19 574.311 310.344 574.943 309.523 575.711V592H305.852V570.184H309.523V572.605C310.487 571.642 311.438 570.9 312.375 570.379C313.326 569.845 314.367 569.578 315.5 569.578C316.789 569.578 317.928 569.871 318.918 570.457C319.921 571.043 320.682 572.007 321.203 573.348C322.31 572.111 323.391 571.173 324.445 570.535C325.5 569.897 326.646 569.578 327.883 569.578C328.82 569.578 329.673 569.728 330.441 570.027C331.21 570.314 331.88 570.783 332.453 571.434C333.039 572.098 333.488 572.924 333.801 573.914C334.126 574.904 334.289 576.147 334.289 577.645V592H330.617ZM357.746 580.516C357.746 584.148 356.874 587.046 355.129 589.207C353.397 591.355 351.203 592.43 348.547 592.43C347.466 592.43 346.509 592.306 345.676 592.059C344.842 591.811 343.99 591.427 343.117 590.906V600.047H339.445V570.184H343.117V572.469C344.029 571.648 345.038 570.965 346.145 570.418C347.264 569.858 348.482 569.578 349.797 569.578C352.297 569.578 354.243 570.568 355.637 572.547C357.043 574.526 357.746 577.182 357.746 580.516ZM353.957 580.926C353.957 578.439 353.56 576.512 352.766 575.145C351.971 573.764 350.682 573.074 348.898 573.074C347.857 573.074 346.848 573.309 345.871 573.777C344.908 574.233 343.99 574.826 343.117 575.555V587.918C344.081 588.387 344.901 588.706 345.578 588.875C346.268 589.044 347.056 589.129 347.941 589.129C349.842 589.129 351.32 588.432 352.375 587.039C353.43 585.646 353.957 583.608 353.957 580.926ZM379.504 581.102C379.504 584.773 378.618 587.612 376.848 589.617C375.077 591.609 372.72 592.605 369.777 592.605C366.743 592.605 364.354 591.577 362.609 589.52C360.878 587.449 360.012 584.643 360.012 581.102C360.012 577.456 360.904 574.624 362.688 572.605C364.484 570.587 366.848 569.578 369.777 569.578C372.72 569.578 375.077 570.587 376.848 572.605C378.618 574.611 379.504 577.443 379.504 581.102ZM375.715 581.102C375.715 578.276 375.201 576.18 374.172 574.812C373.143 573.432 371.678 572.742 369.777 572.742C367.863 572.742 366.385 573.432 365.344 574.812C364.315 576.18 363.801 578.276 363.801 581.102C363.801 583.836 364.315 585.913 365.344 587.332C366.385 588.738 367.863 589.441 369.777 589.441C371.665 589.441 373.124 588.751 374.152 587.371C375.194 585.978 375.715 583.888 375.715 581.102ZM389.172 592.527C387.714 592.527 386.346 592.332 385.07 591.941C383.807 591.551 382.759 591.134 381.926 590.691V586.57H382.121C382.434 586.818 382.798 587.091 383.215 587.391C383.645 587.69 384.211 588.003 384.914 588.328C385.539 588.615 386.223 588.868 386.965 589.09C387.72 589.311 388.501 589.422 389.309 589.422C389.895 589.422 390.52 589.357 391.184 589.227C391.848 589.083 392.342 588.908 392.668 588.699C393.124 588.4 393.449 588.081 393.645 587.742C393.853 587.404 393.957 586.896 393.957 586.219C393.957 585.346 393.716 584.689 393.234 584.246C392.766 583.803 391.926 583.432 390.715 583.133C390.246 583.016 389.634 582.879 388.879 582.723C388.124 582.566 387.427 582.397 386.789 582.215C385.122 581.733 383.911 580.991 383.156 579.988C382.401 578.973 382.023 577.749 382.023 576.316C382.023 574.35 382.766 572.749 384.25 571.512C385.734 570.275 387.707 569.656 390.168 569.656C391.379 569.656 392.596 569.806 393.82 570.105C395.044 570.405 396.073 570.783 396.906 571.238V575.164H396.711C395.773 574.422 394.725 573.836 393.566 573.406C392.421 572.977 391.262 572.762 390.09 572.762C388.879 572.762 387.857 573.016 387.023 573.523C386.19 574.031 385.773 574.799 385.773 575.828C385.773 576.74 386.021 577.423 386.516 577.879C387.01 578.322 387.805 578.686 388.898 578.973C389.445 579.116 390.051 579.259 390.715 579.402C391.392 579.533 392.102 579.689 392.844 579.871C394.458 580.275 395.669 580.945 396.477 581.883C397.297 582.82 397.707 584.096 397.707 585.711C397.707 586.648 397.518 587.54 397.141 588.387C396.776 589.22 396.236 589.936 395.52 590.535C394.738 591.186 393.853 591.681 392.863 592.02C391.887 592.358 390.656 592.527 389.172 592.527ZM410.598 592.508C407.121 592.508 404.419 591.531 402.492 589.578C400.578 587.612 399.621 584.826 399.621 581.219C399.621 577.664 400.552 574.839 402.414 572.742C404.276 570.633 406.711 569.578 409.719 569.578C411.073 569.578 412.271 569.773 413.312 570.164C414.354 570.555 415.266 571.167 416.047 572C416.828 572.833 417.427 573.855 417.844 575.066C418.26 576.264 418.469 577.736 418.469 579.48V581.473H403.352C403.352 584.012 403.99 585.952 405.266 587.293C406.542 588.634 408.306 589.305 410.559 589.305C411.366 589.305 412.154 589.214 412.922 589.031C413.703 588.849 414.406 588.615 415.031 588.328C415.695 588.029 416.255 587.742 416.711 587.469C417.167 587.182 417.544 586.915 417.844 586.668H418.059V590.672C417.629 590.841 417.095 591.056 416.457 591.316C415.819 591.564 415.246 591.759 414.738 591.902C414.022 592.098 413.371 592.247 412.785 592.352C412.212 592.456 411.483 592.508 410.598 592.508ZM414.895 578.66C414.868 577.671 414.751 576.818 414.543 576.102C414.335 575.385 414.035 574.78 413.645 574.285C413.215 573.738 412.661 573.322 411.984 573.035C411.32 572.749 410.493 572.605 409.504 572.605C408.527 572.605 407.694 572.755 407.004 573.055C406.327 573.341 405.708 573.764 405.148 574.324C404.602 574.897 404.185 575.535 403.898 576.238C403.612 576.928 403.43 577.736 403.352 578.66H414.895ZM433.742 574.129H433.547C433.273 574.051 432.98 574.005 432.668 573.992C432.368 573.966 432.004 573.953 431.574 573.953C430.585 573.953 429.602 574.168 428.625 574.598C427.648 575.027 426.724 575.665 425.852 576.512V592H422.18V570.184H425.852V573.426C427.193 572.241 428.358 571.408 429.348 570.926C430.35 570.431 431.32 570.184 432.258 570.184C432.635 570.184 432.915 570.197 433.098 570.223C433.293 570.236 433.508 570.262 433.742 570.301V574.129ZM460.656 574.129H460.461C460.188 574.051 459.895 574.005 459.582 573.992C459.283 573.966 458.918 573.953 458.488 573.953C457.499 573.953 456.516 574.168 455.539 574.598C454.562 575.027 453.638 575.665 452.766 576.512V592H449.094V570.184H452.766V573.426C454.107 572.241 455.272 571.408 456.262 570.926C457.264 570.431 458.234 570.184 459.172 570.184C459.549 570.184 459.829 570.197 460.012 570.223C460.207 570.236 460.422 570.262 460.656 570.301V574.129ZM472.98 592.508C469.504 592.508 466.802 591.531 464.875 589.578C462.961 587.612 462.004 584.826 462.004 581.219C462.004 577.664 462.935 574.839 464.797 572.742C466.659 570.633 469.094 569.578 472.102 569.578C473.456 569.578 474.654 569.773 475.695 570.164C476.737 570.555 477.648 571.167 478.43 572C479.211 572.833 479.81 573.855 480.227 575.066C480.643 576.264 480.852 577.736 480.852 579.48V581.473H465.734C465.734 584.012 466.372 585.952 467.648 587.293C468.924 588.634 470.689 589.305 472.941 589.305C473.749 589.305 474.536 589.214 475.305 589.031C476.086 588.849 476.789 588.615 477.414 588.328C478.078 588.029 478.638 587.742 479.094 587.469C479.549 587.182 479.927 586.915 480.227 586.668H480.441V590.672C480.012 590.841 479.478 591.056 478.84 591.316C478.202 591.564 477.629 591.759 477.121 591.902C476.405 592.098 475.754 592.247 475.168 592.352C474.595 592.456 473.866 592.508 472.98 592.508ZM477.277 578.66C477.251 577.671 477.134 576.818 476.926 576.102C476.717 575.385 476.418 574.78 476.027 574.285C475.598 573.738 475.044 573.322 474.367 573.035C473.703 572.749 472.876 572.605 471.887 572.605C470.91 572.605 470.077 572.755 469.387 573.055C468.71 573.341 468.091 573.764 467.531 574.324C466.984 574.897 466.568 575.535 466.281 576.238C465.995 576.928 465.812 577.736 465.734 578.66H477.277ZM501.359 600.047H497.688V589.617C496.62 590.594 495.578 591.31 494.562 591.766C493.547 592.208 492.421 592.43 491.184 592.43C488.71 592.43 486.737 591.44 485.266 589.461C483.794 587.469 483.059 584.702 483.059 581.16C483.059 579.285 483.312 577.632 483.82 576.199C484.341 574.754 485.025 573.543 485.871 572.566C486.678 571.616 487.642 570.88 488.762 570.359C489.882 569.839 491.047 569.578 492.258 569.578C493.378 569.578 494.348 569.708 495.168 569.969C495.988 570.229 496.828 570.613 497.688 571.121L497.922 570.184H501.359V600.047ZM497.688 586.531V574.109C496.763 573.654 495.936 573.335 495.207 573.152C494.478 572.97 493.697 572.879 492.863 572.879C490.936 572.879 489.452 573.576 488.41 574.969C487.368 576.362 486.848 578.367 486.848 580.984C486.848 583.536 487.264 585.503 488.098 586.883C488.931 588.25 490.227 588.934 491.984 588.934C493.013 588.934 494.016 588.712 494.992 588.27C495.969 587.827 496.867 587.247 497.688 586.531ZM523.664 592H519.992V589.578C518.859 590.568 517.785 591.323 516.77 591.844C515.754 592.352 514.621 592.605 513.371 592.605C512.421 592.605 511.522 592.449 510.676 592.137C509.842 591.824 509.113 591.329 508.488 590.652C507.863 589.975 507.375 589.122 507.023 588.094C506.685 587.065 506.516 585.815 506.516 584.344V570.184H510.188V582.605C510.188 583.764 510.227 584.728 510.305 585.496C510.396 586.251 510.591 586.915 510.891 587.488C511.19 588.048 511.594 588.458 512.102 588.719C512.622 588.979 513.365 589.109 514.328 589.109C515.227 589.109 516.184 588.855 517.199 588.348C518.215 587.84 519.146 587.215 519.992 586.473V570.184H523.664V592ZM532.727 592H529.055V570.184H532.727V592ZM532.98 566.531H528.801V562.723H532.98V566.531ZM549.68 574.129H549.484C549.211 574.051 548.918 574.005 548.605 573.992C548.306 573.966 547.941 573.953 547.512 573.953C546.522 573.953 545.539 574.168 544.562 574.598C543.586 575.027 542.661 575.665 541.789 576.512V592H538.117V570.184H541.789V573.426C543.13 572.241 544.296 571.408 545.285 570.926C546.288 570.431 547.258 570.184 548.195 570.184C548.573 570.184 548.853 570.197 549.035 570.223C549.23 570.236 549.445 570.262 549.68 570.301V574.129ZM562.004 592.508C558.527 592.508 555.826 591.531 553.898 589.578C551.984 587.612 551.027 584.826 551.027 581.219C551.027 577.664 551.958 574.839 553.82 572.742C555.682 570.633 558.117 569.578 561.125 569.578C562.479 569.578 563.677 569.773 564.719 570.164C565.76 570.555 566.672 571.167 567.453 572C568.234 572.833 568.833 573.855 569.25 575.066C569.667 576.264 569.875 577.736 569.875 579.48V581.473H554.758C554.758 584.012 555.396 585.952 556.672 587.293C557.948 588.634 559.712 589.305 561.965 589.305C562.772 589.305 563.56 589.214 564.328 589.031C565.109 588.849 565.812 588.615 566.438 588.328C567.102 588.029 567.661 587.742 568.117 587.469C568.573 587.182 568.951 586.915 569.25 586.668H569.465V590.672C569.035 590.841 568.501 591.056 567.863 591.316C567.225 591.564 566.652 591.759 566.145 591.902C565.428 592.098 564.777 592.247 564.191 592.352C563.618 592.456 562.889 592.508 562.004 592.508ZM566.301 578.66C566.275 577.671 566.158 576.818 565.949 576.102C565.741 575.385 565.441 574.78 565.051 574.285C564.621 573.738 564.068 573.322 563.391 573.035C562.727 572.749 561.9 572.605 560.91 572.605C559.934 572.605 559.1 572.755 558.41 573.055C557.733 573.341 557.115 573.764 556.555 574.324C556.008 574.897 555.591 575.535 555.305 576.238C555.018 576.928 554.836 577.736 554.758 578.66H566.301ZM600.598 581.023C600.598 578.419 600.201 576.447 599.406 575.105C598.612 573.751 597.336 573.074 595.578 573.074C594.576 573.074 593.56 573.309 592.531 573.777C591.516 574.246 590.591 574.839 589.758 575.555V588.055C590.682 588.51 591.503 588.836 592.219 589.031C592.935 589.214 593.723 589.305 594.582 589.305C596.457 589.305 597.928 588.641 598.996 587.312C600.064 585.984 600.598 583.888 600.598 581.023ZM604.387 580.73C604.387 584.298 603.521 587.169 601.789 589.344C600.057 591.518 597.889 592.605 595.285 592.605C594.1 592.605 593.085 592.456 592.238 592.156C591.405 591.87 590.578 591.479 589.758 590.984L589.523 592H586.086V561.609H589.758V572.469C590.682 571.635 591.685 570.945 592.766 570.398C593.846 569.852 595.07 569.578 596.438 569.578C598.898 569.578 600.839 570.568 602.258 572.547C603.677 574.513 604.387 577.241 604.387 580.73ZM620.383 586.629V580.574C619.51 580.652 618.404 580.763 617.062 580.906C615.734 581.036 614.66 581.225 613.84 581.473C612.863 581.772 612.056 582.234 611.418 582.859C610.78 583.471 610.461 584.331 610.461 585.438C610.461 586.688 610.812 587.632 611.516 588.27C612.219 588.908 613.247 589.227 614.602 589.227C615.76 589.227 616.809 588.979 617.746 588.484C618.684 587.977 619.562 587.358 620.383 586.629ZM620.383 589.676C620.083 589.897 619.68 590.21 619.172 590.613C618.677 591.004 618.195 591.316 617.727 591.551C617.076 591.889 616.444 592.15 615.832 592.332C615.233 592.514 614.387 592.605 613.293 592.605C612.395 592.605 611.542 592.436 610.734 592.098C609.927 591.759 609.217 591.284 608.605 590.672C608.02 590.073 607.551 589.337 607.199 588.465C606.848 587.579 606.672 586.648 606.672 585.672C606.672 584.161 606.991 582.879 607.629 581.824C608.267 580.757 609.276 579.91 610.656 579.285C611.88 578.725 613.326 578.341 614.992 578.133C616.659 577.911 618.456 577.749 620.383 577.645V576.941C620.383 576.082 620.253 575.392 619.992 574.871C619.732 574.337 619.367 573.927 618.898 573.641C618.43 573.341 617.857 573.146 617.18 573.055C616.503 572.951 615.806 572.898 615.09 572.898C614.243 572.898 613.247 573.029 612.102 573.289C610.956 573.536 609.81 573.901 608.664 574.383H608.449V570.652C609.126 570.457 610.096 570.242 611.359 570.008C612.622 569.773 613.872 569.656 615.109 569.656C616.607 569.656 617.87 569.773 618.898 570.008C619.927 570.242 620.852 570.665 621.672 571.277C622.466 571.876 623.059 572.651 623.449 573.602C623.84 574.552 624.035 575.711 624.035 577.078V592H620.383V589.676ZM635.109 592.527C633.651 592.527 632.284 592.332 631.008 591.941C629.745 591.551 628.697 591.134 627.863 590.691V586.57H628.059C628.371 586.818 628.736 587.091 629.152 587.391C629.582 587.69 630.148 588.003 630.852 588.328C631.477 588.615 632.16 588.868 632.902 589.09C633.658 589.311 634.439 589.422 635.246 589.422C635.832 589.422 636.457 589.357 637.121 589.227C637.785 589.083 638.28 588.908 638.605 588.699C639.061 588.4 639.387 588.081 639.582 587.742C639.79 587.404 639.895 586.896 639.895 586.219C639.895 585.346 639.654 584.689 639.172 584.246C638.703 583.803 637.863 583.432 636.652 583.133C636.184 583.016 635.572 582.879 634.816 582.723C634.061 582.566 633.365 582.397 632.727 582.215C631.06 581.733 629.849 580.991 629.094 579.988C628.339 578.973 627.961 577.749 627.961 576.316C627.961 574.35 628.703 572.749 630.188 571.512C631.672 570.275 633.645 569.656 636.105 569.656C637.316 569.656 638.534 569.806 639.758 570.105C640.982 570.405 642.01 570.783 642.844 571.238V575.164H642.648C641.711 574.422 640.663 573.836 639.504 573.406C638.358 572.977 637.199 572.762 636.027 572.762C634.816 572.762 633.794 573.016 632.961 573.523C632.128 574.031 631.711 574.799 631.711 575.828C631.711 576.74 631.958 577.423 632.453 577.879C632.948 578.322 633.742 578.686 634.836 578.973C635.383 579.116 635.988 579.259 636.652 579.402C637.329 579.533 638.039 579.689 638.781 579.871C640.396 580.275 641.607 580.945 642.414 581.883C643.234 582.82 643.645 584.096 643.645 585.711C643.645 586.648 643.456 587.54 643.078 588.387C642.714 589.22 642.173 589.936 641.457 590.535C640.676 591.186 639.79 591.681 638.801 592.02C637.824 592.358 636.594 592.527 635.109 592.527ZM665.148 592H660.324L652.18 581.473L650.734 582.879V592H647.062V561.609H650.734V579.402L659.367 570.184H663.938L654.973 579.305L665.148 592ZM676.457 592.508C672.98 592.508 670.279 591.531 668.352 589.578C666.438 587.612 665.48 584.826 665.48 581.219C665.48 577.664 666.411 574.839 668.273 572.742C670.135 570.633 672.57 569.578 675.578 569.578C676.932 569.578 678.13 569.773 679.172 570.164C680.214 570.555 681.125 571.167 681.906 572C682.688 572.833 683.286 573.855 683.703 575.066C684.12 576.264 684.328 577.736 684.328 579.48V581.473H669.211C669.211 584.012 669.849 585.952 671.125 587.293C672.401 588.634 674.165 589.305 676.418 589.305C677.225 589.305 678.013 589.214 678.781 589.031C679.562 588.849 680.266 588.615 680.891 588.328C681.555 588.029 682.115 587.742 682.57 587.469C683.026 587.182 683.404 586.915 683.703 586.668H683.918V590.672C683.488 590.841 682.954 591.056 682.316 591.316C681.678 591.564 681.105 591.759 680.598 591.902C679.882 592.098 679.23 592.247 678.645 592.352C678.072 592.456 677.342 592.508 676.457 592.508ZM680.754 578.66C680.728 577.671 680.611 576.818 680.402 576.102C680.194 575.385 679.895 574.78 679.504 574.285C679.074 573.738 678.521 573.322 677.844 573.035C677.18 572.749 676.353 572.605 675.363 572.605C674.387 572.605 673.553 572.755 672.863 573.055C672.186 573.341 671.568 573.764 671.008 574.324C670.461 574.897 670.044 575.535 669.758 576.238C669.471 576.928 669.289 577.736 669.211 578.66H680.754ZM694.641 592.43C692.635 592.43 691.073 591.863 689.953 590.73C688.833 589.585 688.273 587.781 688.273 585.32V573.23H685.793V570.184H688.273V563.914H691.945V570.184H698.703V573.23H691.945V583.602C691.945 584.708 691.965 585.561 692.004 586.16C692.043 586.759 692.193 587.319 692.453 587.84C692.674 588.296 693.033 588.641 693.527 588.875C694.022 589.096 694.693 589.207 695.539 589.207C696.138 589.207 696.717 589.122 697.277 588.953C697.837 588.771 698.241 588.621 698.488 588.504H698.703V591.805C698.013 592 697.31 592.15 696.594 592.254C695.891 592.371 695.24 592.43 694.641 592.43ZM705.188 592H701.516V570.184H705.188V592ZM705.441 566.531H701.262V562.723H705.441V566.531ZM727.727 592H724.055V579.578C724.055 578.576 724.003 577.645 723.898 576.785C723.807 575.913 723.625 575.216 723.352 574.695C723.052 574.148 722.635 573.745 722.102 573.484C721.568 573.211 720.839 573.074 719.914 573.074C719.003 573.074 718.059 573.322 717.082 573.816C716.118 574.298 715.174 574.93 714.25 575.711V592H710.578V570.184H714.25V572.605C715.344 571.629 716.424 570.88 717.492 570.359C718.56 569.839 719.686 569.578 720.871 569.578C723.02 569.578 724.699 570.288 725.91 571.707C727.121 573.113 727.727 575.158 727.727 577.84V592ZM744.445 561.609L733.059 598.328H729.758L741.086 561.609H744.445ZM751.945 592H748.273V561.609H751.945V592ZM769.523 586.629V580.574C768.651 580.652 767.544 580.763 766.203 580.906C764.875 581.036 763.801 581.225 762.98 581.473C762.004 581.772 761.197 582.234 760.559 582.859C759.921 583.471 759.602 584.331 759.602 585.438C759.602 586.688 759.953 587.632 760.656 588.27C761.359 588.908 762.388 589.227 763.742 589.227C764.901 589.227 765.949 588.979 766.887 588.484C767.824 587.977 768.703 587.358 769.523 586.629ZM769.523 589.676C769.224 589.897 768.82 590.21 768.312 590.613C767.818 591.004 767.336 591.316 766.867 591.551C766.216 591.889 765.585 592.15 764.973 592.332C764.374 592.514 763.527 592.605 762.434 592.605C761.535 592.605 760.682 592.436 759.875 592.098C759.068 591.759 758.358 591.284 757.746 590.672C757.16 590.073 756.691 589.337 756.34 588.465C755.988 587.579 755.812 586.648 755.812 585.672C755.812 584.161 756.132 582.879 756.77 581.824C757.408 580.757 758.417 579.91 759.797 579.285C761.021 578.725 762.466 578.341 764.133 578.133C765.799 577.911 767.596 577.749 769.523 577.645V576.941C769.523 576.082 769.393 575.392 769.133 574.871C768.872 574.337 768.508 573.927 768.039 573.641C767.57 573.341 766.997 573.146 766.32 573.055C765.643 572.951 764.947 572.898 764.23 572.898C763.384 572.898 762.388 573.029 761.242 573.289C760.096 573.536 758.951 573.901 757.805 574.383H757.59V570.652C758.267 570.457 759.237 570.242 760.5 570.008C761.763 569.773 763.013 569.656 764.25 569.656C765.747 569.656 767.01 569.773 768.039 570.008C769.068 570.242 769.992 570.665 770.812 571.277C771.607 571.876 772.199 572.651 772.59 573.602C772.98 574.552 773.176 575.711 773.176 577.078V592H769.523V589.676ZM789.914 574.129H789.719C789.445 574.051 789.152 574.005 788.84 573.992C788.54 573.966 788.176 573.953 787.746 573.953C786.757 573.953 785.773 574.168 784.797 574.598C783.82 575.027 782.896 575.665 782.023 576.512V592H778.352V570.184H782.023V573.426C783.365 572.241 784.53 571.408 785.52 570.926C786.522 570.431 787.492 570.184 788.43 570.184C788.807 570.184 789.087 570.197 789.27 570.223C789.465 570.236 789.68 570.262 789.914 570.301V574.129ZM804.953 586.629V580.574C804.081 580.652 802.974 580.763 801.633 580.906C800.305 581.036 799.23 581.225 798.41 581.473C797.434 581.772 796.626 582.234 795.988 582.859C795.35 583.471 795.031 584.331 795.031 585.438C795.031 586.688 795.383 587.632 796.086 588.27C796.789 588.908 797.818 589.227 799.172 589.227C800.331 589.227 801.379 588.979 802.316 588.484C803.254 587.977 804.133 587.358 804.953 586.629ZM804.953 589.676C804.654 589.897 804.25 590.21 803.742 590.613C803.247 591.004 802.766 591.316 802.297 591.551C801.646 591.889 801.014 592.15 800.402 592.332C799.803 592.514 798.957 592.605 797.863 592.605C796.965 592.605 796.112 592.436 795.305 592.098C794.497 591.759 793.788 591.284 793.176 590.672C792.59 590.073 792.121 589.337 791.77 588.465C791.418 587.579 791.242 586.648 791.242 585.672C791.242 584.161 791.561 582.879 792.199 581.824C792.837 580.757 793.846 579.91 795.227 579.285C796.451 578.725 797.896 578.341 799.562 578.133C801.229 577.911 803.026 577.749 804.953 577.645V576.941C804.953 576.082 804.823 575.392 804.562 574.871C804.302 574.337 803.938 573.927 803.469 573.641C803 573.341 802.427 573.146 801.75 573.055C801.073 572.951 800.376 572.898 799.66 572.898C798.814 572.898 797.818 573.029 796.672 573.289C795.526 573.536 794.38 573.901 793.234 574.383H793.02V570.652C793.697 570.457 794.667 570.242 795.93 570.008C797.193 569.773 798.443 569.656 799.68 569.656C801.177 569.656 802.44 569.773 803.469 570.008C804.497 570.242 805.422 570.665 806.242 571.277C807.036 571.876 807.629 572.651 808.02 573.602C808.41 574.552 808.605 575.711 808.605 577.078V592H804.953V589.676ZM830.93 570.184L822.707 592H819.406L811.242 570.184H815.207L821.184 587.02L827.102 570.184H830.93ZM843.176 592.508C839.699 592.508 836.997 591.531 835.07 589.578C833.156 587.612 832.199 584.826 832.199 581.219C832.199 577.664 833.13 574.839 834.992 572.742C836.854 570.633 839.289 569.578 842.297 569.578C843.651 569.578 844.849 569.773 845.891 570.164C846.932 570.555 847.844 571.167 848.625 572C849.406 572.833 850.005 573.855 850.422 575.066C850.839 576.264 851.047 577.736 851.047 579.48V581.473H835.93C835.93 584.012 836.568 585.952 837.844 587.293C839.12 588.634 840.884 589.305 843.137 589.305C843.944 589.305 844.732 589.214 845.5 589.031C846.281 588.849 846.984 588.615 847.609 588.328C848.273 588.029 848.833 587.742 849.289 587.469C849.745 587.182 850.122 586.915 850.422 586.668H850.637V590.672C850.207 590.841 849.673 591.056 849.035 591.316C848.397 591.564 847.824 591.759 847.316 591.902C846.6 592.098 845.949 592.247 845.363 592.352C844.79 592.456 844.061 592.508 843.176 592.508ZM847.473 578.66C847.447 577.671 847.329 576.818 847.121 576.102C846.913 575.385 846.613 574.78 846.223 574.285C845.793 573.738 845.24 573.322 844.562 573.035C843.898 572.749 843.072 572.605 842.082 572.605C841.105 572.605 840.272 572.755 839.582 573.055C838.905 573.341 838.286 573.764 837.727 574.324C837.18 574.897 836.763 575.535 836.477 576.238C836.19 576.928 836.008 577.736 835.93 578.66H847.473ZM858.508 592H854.836V561.609H858.508V592ZM874.016 581.043H863V577.508H874.016V581.043ZM896.73 580.516C896.73 584.148 895.858 587.046 894.113 589.207C892.382 591.355 890.188 592.43 887.531 592.43C886.451 592.43 885.493 592.306 884.66 592.059C883.827 591.811 882.974 591.427 882.102 590.906V600.047H878.43V570.184H882.102V572.469C883.013 571.648 884.022 570.965 885.129 570.418C886.249 569.858 887.466 569.578 888.781 569.578C891.281 569.578 893.228 570.568 894.621 572.547C896.027 574.526 896.73 577.182 896.73 580.516ZM892.941 580.926C892.941 578.439 892.544 576.512 891.75 575.145C890.956 573.764 889.667 573.074 887.883 573.074C886.841 573.074 885.832 573.309 884.855 573.777C883.892 574.233 882.974 574.826 882.102 575.555V587.918C883.065 588.387 883.885 588.706 884.562 588.875C885.253 589.044 886.04 589.129 886.926 589.129C888.827 589.129 890.305 588.432 891.359 587.039C892.414 585.646 892.941 583.608 892.941 580.926ZM912.727 586.629V580.574C911.854 580.652 910.747 580.763 909.406 580.906C908.078 581.036 907.004 581.225 906.184 581.473C905.207 581.772 904.4 582.234 903.762 582.859C903.124 583.471 902.805 584.331 902.805 585.438C902.805 586.688 903.156 587.632 903.859 588.27C904.562 588.908 905.591 589.227 906.945 589.227C908.104 589.227 909.152 588.979 910.09 588.484C911.027 587.977 911.906 587.358 912.727 586.629ZM912.727 589.676C912.427 589.897 912.023 590.21 911.516 590.613C911.021 591.004 910.539 591.316 910.07 591.551C909.419 591.889 908.788 592.15 908.176 592.332C907.577 592.514 906.73 592.605 905.637 592.605C904.738 592.605 903.885 592.436 903.078 592.098C902.271 591.759 901.561 591.284 900.949 590.672C900.363 590.073 899.895 589.337 899.543 588.465C899.191 587.579 899.016 586.648 899.016 585.672C899.016 584.161 899.335 582.879 899.973 581.824C900.611 580.757 901.62 579.91 903 579.285C904.224 578.725 905.669 578.341 907.336 578.133C909.003 577.911 910.799 577.749 912.727 577.645V576.941C912.727 576.082 912.596 575.392 912.336 574.871C912.076 574.337 911.711 573.927 911.242 573.641C910.773 573.341 910.201 573.146 909.523 573.055C908.846 572.951 908.15 572.898 907.434 572.898C906.587 572.898 905.591 573.029 904.445 573.289C903.299 573.536 902.154 573.901 901.008 574.383H900.793V570.652C901.47 570.457 902.44 570.242 903.703 570.008C904.966 569.773 906.216 569.656 907.453 569.656C908.951 569.656 910.214 569.773 911.242 570.008C912.271 570.242 913.195 570.665 914.016 571.277C914.81 571.876 915.402 572.651 915.793 573.602C916.184 574.552 916.379 575.711 916.379 577.078V592H912.727V589.676ZM938.703 570.184L926.965 600.047H923.039L926.945 590.945L919.016 570.184H922.98L928.938 586.336L934.875 570.184H938.703ZM966.242 592V579.383C966.242 578.38 966.203 577.456 966.125 576.609C966.047 575.75 965.884 575.079 965.637 574.598C965.376 574.077 965.005 573.693 964.523 573.445C964.042 573.198 963.391 573.074 962.57 573.074C961.815 573.074 961.001 573.309 960.129 573.777C959.27 574.233 958.378 574.897 957.453 575.77C957.466 575.991 957.479 576.258 957.492 576.57C957.518 576.87 957.531 577.228 957.531 577.645V592H953.859V579.383C953.859 578.38 953.82 577.456 953.742 576.609C953.664 575.75 953.501 575.079 953.254 574.598C952.993 574.077 952.622 573.693 952.141 573.445C951.659 573.198 951.008 573.074 950.188 573.074C949.393 573.074 948.56 573.322 947.688 573.816C946.815 574.311 945.969 574.943 945.148 575.711V592H941.477V570.184H945.148V572.605C946.112 571.642 947.062 570.9 948 570.379C948.951 569.845 949.992 569.578 951.125 569.578C952.414 569.578 953.553 569.871 954.543 570.457C955.546 571.043 956.307 572.007 956.828 573.348C957.935 572.111 959.016 571.173 960.07 570.535C961.125 569.897 962.271 569.578 963.508 569.578C964.445 569.578 965.298 569.728 966.066 570.027C966.835 570.314 967.505 570.783 968.078 571.434C968.664 572.098 969.113 572.924 969.426 573.914C969.751 574.904 969.914 576.147 969.914 577.645V592H966.242ZM993.02 581.102C993.02 584.773 992.134 587.612 990.363 589.617C988.592 591.609 986.236 592.605 983.293 592.605C980.259 592.605 977.87 591.577 976.125 589.52C974.393 587.449 973.527 584.643 973.527 581.102C973.527 577.456 974.419 574.624 976.203 572.605C978 570.587 980.363 569.578 983.293 569.578C986.236 569.578 988.592 570.587 990.363 572.605C992.134 574.611 993.02 577.443 993.02 581.102ZM989.23 581.102C989.23 578.276 988.716 576.18 987.688 574.812C986.659 573.432 985.194 572.742 983.293 572.742C981.379 572.742 979.901 573.432 978.859 574.812C977.831 576.18 977.316 578.276 977.316 581.102C977.316 583.836 977.831 585.913 978.859 587.332C979.901 588.738 981.379 589.441 983.293 589.441C985.181 589.441 986.639 588.751 987.668 587.371C988.71 585.978 989.23 583.888 989.23 581.102ZM1011.3 581.023C1011.3 578.419 1010.9 576.447 1010.11 575.105C1009.32 573.751 1008.04 573.074 1006.28 573.074C1005.28 573.074 1004.26 573.309 1003.23 573.777C1002.22 574.246 1001.29 574.839 1000.46 575.555V588.055C1001.39 588.51 1002.21 588.836 1002.92 589.031C1003.64 589.214 1004.43 589.305 1005.29 589.305C1007.16 589.305 1008.63 588.641 1009.7 587.312C1010.77 585.984 1011.3 583.888 1011.3 581.023ZM1015.09 580.73C1015.09 584.298 1014.22 587.169 1012.49 589.344C1010.76 591.518 1008.59 592.605 1005.99 592.605C1004.8 592.605 1003.79 592.456 1002.94 592.156C1002.11 591.87 1001.28 591.479 1000.46 590.984L1000.23 592H996.789V561.609H1000.46V572.469C1001.39 571.635 1002.39 570.945 1003.47 570.398C1004.55 569.852 1005.77 569.578 1007.14 569.578C1009.6 569.578 1011.54 570.568 1012.96 572.547C1014.38 574.513 1015.09 577.241 1015.09 580.73Z"
        fill="#8C34B1" />
    <g clip-path="url(#clip0_1034_2)">
        <path
            d="M399.393 104.235C399.393 88.8097 411.898 76.3052 427.323 76.3052H864.165C879.591 76.3052 892.095 88.8097 892.095 104.235V383.337C892.095 398.762 879.591 411.267 864.165 411.267H427.323C411.898 411.267 399.393 398.762 399.393 383.337V104.235Z"
            fill="white" stroke="#E1E4E5" stroke-width="4" />
        <path fill-rule="evenodd" clip-rule="evenodd"
            d="M788.675 178.287C786.742 178.61 784.277 179.867 782.744 181.309C780.33 183.584 780.066 184.497 777.247 200.301C774.801 214.038 771.931 230.065 770.269 239.282L769.531 243.391H785.141C801.692 243.391 802.846 243.306 806.006 241.846C809.317 240.316 812.203 236.593 812.743 233.158L812.958 231.788H798.378C784.88 231.788 783.795 231.748 783.795 231.241C783.795 230.94 785.927 218.913 788.532 204.514C791.138 190.116 793.272 178.251 793.272 178.148C793.272 177.897 790.514 177.98 788.675 178.287ZM477.278 196.779C474.49 197.762 471.88 200.095 470.749 202.617C470.216 203.807 460 259.45 460 261.166C460 261.725 460.372 261.763 465.858 261.763H471.716L472.056 260.071C472.493 257.89 475.03 243.825 475.03 243.579C475.03 243.476 479.483 243.391 484.927 243.391C495.482 243.391 497.029 243.218 500.157 241.683C503.145 240.217 505.954 236.397 506.543 232.997L506.753 231.788H492.035C479.474 231.788 477.317 231.721 477.317 231.326C477.317 231.072 477.674 228.933 478.111 226.572C478.548 224.211 479.439 219.307 480.092 215.673C480.744 212.039 481.784 206.279 482.402 202.873C483.02 199.467 483.525 196.603 483.525 196.507C483.525 196.155 478.42 196.376 477.278 196.779ZM492.179 196.914C487.472 198.519 484.785 201.455 483.662 206.218L483.257 207.937H496.439C504.38 207.937 509.961 208.065 510.475 208.257C510.976 208.445 511.524 209.038 511.802 209.692C512.307 210.887 512.146 212.01 508.828 230.463C508.209 233.9 507.703 236.827 507.703 236.967C507.703 237.107 509.033 236.782 510.657 236.244C516.38 234.351 519.818 231.164 521.372 226.309C521.571 225.688 522.252 221.772 522.886 217.606C523.52 213.441 524.186 209.15 524.366 208.072C525.171 203.257 524.364 199.926 521.952 198.112C519.685 196.406 519.292 196.363 506.07 196.359C495.286 196.355 493.621 196.422 492.179 196.914ZM549.526 196.999C546.497 197.777 542.218 199.769 539.564 201.638C536.884 203.524 532.661 207.988 531.141 210.542C529.446 213.388 528.048 217.092 527.603 219.913C527.104 223.077 527.397 227.884 528.248 230.522C530.004 235.962 534.607 240.486 540.377 242.444C543.572 243.528 549.051 243.695 552.031 242.8C554.535 242.047 556.933 240.673 558.75 238.949C559.421 238.313 560.062 237.885 560.176 237.997C560.29 238.109 560.165 239.369 559.898 240.796L559.414 243.391H565.389H571.365L571.553 242.505C572.561 237.765 578.278 204.75 578.275 203.689C578.271 201.887 577.041 199.299 575.63 198.125C573.515 196.367 573.256 196.332 562.197 196.352C553.151 196.367 551.695 196.442 549.526 196.999ZM585.308 197.059C585.214 197.458 584.164 203.006 582.976 209.388C580.557 222.372 580.298 225.737 581.384 230.016C583.008 236.406 587.51 240.946 593.812 242.55C600.529 244.259 606.454 242.957 610.76 238.826C611.831 237.799 612.782 237.032 612.874 237.122C613.234 237.477 612.149 241.399 611.206 243.15C607.996 249.108 601.198 251.19 591.044 249.325C589.709 249.08 588.595 248.914 588.568 248.956C588.541 248.998 588.184 251.547 587.775 254.622C587.281 258.325 587.139 260.319 587.354 260.531C587.533 260.707 589.35 261.141 591.392 261.495C597.501 262.553 604.387 261.922 609.324 259.849C613.51 258.092 617.366 254.924 620.07 251.022C621.571 248.853 623.482 244.703 624.472 241.458C624.932 239.951 627.009 229.435 629.087 218.09C631.166 206.745 632.945 197.208 633.041 196.898C633.202 196.375 632.766 196.334 626.984 196.334C623.558 196.334 620.754 196.419 620.754 196.522C620.754 197.584 616.7 218.251 616.289 219.287C614.967 222.616 611.59 226.448 608.696 227.905C606.698 228.91 602.673 229.854 600.384 229.854C595.998 229.854 593.316 226.917 593.31 222.104C593.309 221.298 594.264 215.358 595.432 208.904C596.6 202.451 597.556 196.982 597.556 196.752C597.556 196.424 596.247 196.334 591.518 196.334C585.524 196.334 585.478 196.339 585.308 197.059ZM643.137 196.571C642.779 196.661 641.863 197.156 641.103 197.672C638.423 199.491 638.478 199.291 634.5 221.635C632.512 232.803 630.808 242.267 630.714 242.666L630.544 243.391H636.595C639.923 243.391 642.646 243.293 642.646 243.173C642.646 242.078 648.659 209.654 648.946 209.2C649.657 208.077 650.878 207.875 656.262 207.989C661.145 208.092 661.536 208.148 663.289 208.998C666.781 210.689 668.501 213.42 668.714 217.606C668.832 219.932 668.552 222.008 666.858 231.338C665.761 237.383 664.864 242.569 664.864 242.861C664.864 243.334 665.501 243.391 670.739 243.391C676.564 243.391 676.615 243.385 676.781 242.666C676.949 241.936 679.273 229.145 680.544 221.958C681.378 217.248 682.548 214.677 684.923 212.343C687.89 209.427 692.438 207.6 695.205 208.213C699.757 209.222 702.804 213.308 702.8 218.392C702.797 219.724 702.057 224.748 701.012 230.499C700.031 235.906 699.124 241.018 699 241.861L698.771 243.391H704.681C710.544 243.391 710.596 243.385 710.769 242.666C710.939 241.959 714.272 223.711 714.875 220.185C715.333 217.501 715.232 212.22 714.678 209.899C713.244 203.894 709.121 199.288 703.335 197.223C701.578 196.596 700.661 196.496 696.721 196.502C692.852 196.509 691.768 196.626 689.696 197.264C685.799 198.465 681.718 200.673 679.355 202.858L678.327 203.81L676.088 201.569C673.638 199.117 670.407 197.339 667.217 196.687C665.494 196.336 644.487 196.235 643.137 196.571ZM798.593 196.794C794.078 198.21 790.547 202.247 789.769 206.89L789.591 207.937H803.056H816.519L817.52 208.922C818.44 209.833 818.503 210.036 818.34 211.582C818.188 213.04 814.44 234.627 814.012 236.522C813.853 237.227 813.855 237.227 816.55 236.328C820.181 235.117 821.583 234.373 823.6 232.583C825.43 230.96 826.592 229.247 827.423 226.943C828.246 224.666 831.237 204.782 830.985 203.264C830.511 200.386 829.186 198.481 826.762 197.191C825.493 196.516 825.079 196.493 812.712 196.429C802.818 196.377 799.661 196.459 798.593 196.794ZM745.323 196.997C738.978 197.82 732.988 200.6 728.261 204.917C719.969 212.491 717.142 223.946 721.46 232.473C722.804 235.123 726.389 238.82 728.892 240.136C732.427 241.995 734.285 242.475 738.662 242.663C747.568 243.046 754.476 240.375 760.952 234.044C766.226 228.888 768.687 223.796 769.012 217.366C769.222 213.204 768.76 210.787 767.107 207.39C763.555 200.084 754.57 195.798 745.323 196.997ZM550.985 208.266C548.773 208.7 545.938 210.222 543.934 212.052C539.451 216.146 538.084 222.836 540.813 227.324C542.127 229.483 543.867 230.673 546.714 231.36C553.141 232.911 560.414 228.818 562.906 222.249C563.569 220.5 564.886 213.607 564.877 211.93C564.871 210.607 564.229 209.522 562.951 208.672C561.918 207.985 561.531 207.939 557.074 207.973C554.45 207.992 551.71 208.124 550.985 208.266ZM743.116 208.692C740.361 209.398 738.459 210.406 736.592 212.147C734.404 214.188 733.049 216.241 732.364 218.551C730.759 223.966 732.888 228.716 737.737 230.532C745.813 233.56 755.252 228.011 756.673 219.399C757.661 213.404 753.614 208.755 747.092 208.401C745.778 208.329 744.035 208.457 743.116 208.692Z"
            fill="#8C34B1" />
        <path
            d="M842.32 328.661C842.32 305.666 823.678 287.024 800.683 287.024C777.687 287.024 759.046 305.666 759.046 328.661C759.046 351.657 777.687 370.298 800.683 370.298C823.678 370.298 842.32 351.657 842.32 328.661Z"
            fill="#8C34B1" />
        <path fill-rule="evenodd" clip-rule="evenodd"
            d="M819.607 346.128V348.912C819.607 350.449 818.375 351.696 816.859 351.696H783.889C782.372 351.696 781.141 350.449 781.141 348.912V346.084C781.141 337.658 790.642 332.185 800.374 332.185C810.105 332.185 819.607 337.661 819.607 346.084M807.27 307.726C811.079 311.536 811.079 317.713 807.27 321.523C803.46 325.333 797.283 325.333 793.473 321.523C789.663 317.713 789.663 311.536 793.473 307.726C797.283 303.916 803.46 303.916 807.27 307.726Z"
            fill="white" />
        <path
            d="M778.663 134.088H778.663C766.944 134.088 757.444 143.588 757.444 155.307V155.307C757.444 167.026 766.944 176.526 778.663 176.526H778.663C790.382 176.526 799.882 167.026 799.882 155.307V155.307C799.882 143.588 790.382 134.088 778.663 134.088Z"
            fill="#8C34B1" />
        <path fill-rule="evenodd" clip-rule="evenodd"
            d="M788.307 164.208V165.626C788.307 166.41 787.68 167.046 786.906 167.046H770.104C769.332 167.046 768.704 166.41 768.704 165.626V164.185C768.704 159.892 773.546 157.103 778.505 157.103C783.465 157.103 788.307 159.893 788.307 164.185M782.019 144.638C782.499 145.095 782.882 145.644 783.146 146.252C783.411 146.86 783.551 147.514 783.559 148.177C783.566 148.84 783.441 149.498 783.191 150.111C782.941 150.725 782.571 151.283 782.102 151.751C781.633 152.22 781.076 152.59 780.462 152.84C779.848 153.09 779.19 153.215 778.527 153.207C777.865 153.199 777.21 153.059 776.602 152.794C775.995 152.53 775.446 152.146 774.988 151.667C774.092 150.727 773.599 149.474 773.615 148.176C773.63 146.877 774.153 145.636 775.071 144.718C775.99 143.8 777.231 143.278 778.529 143.263C779.827 143.248 781.08 143.741 782.019 144.638Z"
            fill="white" />
        <path
            d="M697.792 114.871H697.791C686.072 114.871 676.572 124.371 676.572 136.089V136.09C676.572 147.809 686.072 157.309 697.791 157.309H697.792C709.511 157.309 719.01 147.809 719.01 136.09V136.089C719.01 124.371 709.511 114.871 697.792 114.871Z"
            fill="#8C34B1" />
        <path fill-rule="evenodd" clip-rule="evenodd"
            d="M707.434 144.991V146.41C707.434 147.193 706.807 147.829 706.034 147.829H689.232C688.459 147.829 687.832 147.193 687.832 146.41V144.968C687.832 140.675 692.673 137.886 697.633 137.886C702.593 137.886 707.434 140.676 707.434 144.968M701.147 125.421C701.609 125.882 701.975 126.43 702.225 127.034C702.475 127.637 702.604 128.283 702.604 128.936C702.604 129.589 702.475 130.236 702.225 130.839C701.975 131.442 701.609 131.99 701.147 132.452C700.452 133.147 699.566 133.621 698.601 133.813C697.637 134.005 696.637 133.906 695.728 133.53C694.82 133.154 694.043 132.516 693.497 131.699C692.95 130.881 692.659 129.92 692.659 128.936C692.659 127.953 692.95 126.991 693.497 126.174C694.043 125.356 694.82 124.719 695.728 124.342C696.637 123.966 697.637 123.868 698.601 124.059C699.566 124.251 700.452 124.725 701.147 125.421Z"
            fill="white" />
        <path
            d="M438.891 104.061C438.891 107.093 436.599 109.397 433.955 109.397C431.312 109.397 429.02 107.093 429.02 104.061C429.02 101.029 431.312 98.7246 433.955 98.7246C436.599 98.7246 438.891 101.029 438.891 104.061ZM459.709 104.061C459.709 106.93 457.221 109.397 453.974 109.397C450.725 109.397 448.237 106.93 448.237 104.061C448.237 101.192 450.725 98.7246 453.974 98.7246C457.221 98.7246 459.709 101.192 459.709 104.061Z"
            fill="white" stroke="#E1E4E5" stroke-width="4" />
        <path
            d="M473.591 109.397C476.538 109.397 478.927 107.008 478.927 104.061C478.927 101.114 476.538 98.7246 473.591 98.7246C470.644 98.7246 468.255 101.114 468.255 104.061C468.255 107.008 470.644 109.397 473.591 109.397Z"
            fill="white" stroke="#E1E4E5" stroke-width="4" />
        <path opacity="0.76" fill-rule="evenodd" clip-rule="evenodd"
            d="M526.038 326.259L568.476 392.719H483.6L526.038 326.259Z"
            fill="url(#paint0_linear_1034_2)" />
        <path opacity="0.76" fill-rule="evenodd" clip-rule="evenodd"
            d="M662.275 235.263L681.559 265.261H642.99L662.275 235.263Z"
            fill="url(#paint1_linear_1034_2)" />
        <path
            d="M372.788 368.201C368.018 372.369 359.814 370.789 359.814 370.789C359.814 370.789 359.348 362.451 364.121 358.286C368.891 354.119 377.091 355.696 377.091 355.696C377.091 355.696 377.557 364.034 372.788 368.201Z"
            fill="url(#paint2_linear_1034_2)" />
        <path
            d="M861.407 95.0487C860.989 96.6069 861.914 98.2085 863.472 98.626C865.031 99.0435 866.632 98.1188 867.05 96.5606C867.467 95.0024 866.542 93.4008 864.984 92.9833C863.426 92.5658 861.824 93.4905 861.407 95.0487Z"
            fill="#E1E4E5" />
        <path
            d="M849.482 117.906C849.065 119.464 849.989 121.066 851.548 121.483C853.106 121.901 854.707 120.976 855.125 119.418C855.542 117.86 854.618 116.258 853.059 115.841C851.501 115.423 849.9 116.348 849.482 117.906Z"
            fill="#E1E4E5" />
        <path
            d="M917.061 77.6561C916.644 79.2143 917.568 80.8159 919.127 81.2334C920.685 81.6509 922.286 80.7262 922.704 79.168C923.121 77.6098 922.197 76.0082 920.639 75.5907C919.08 75.1732 917.479 76.0979 917.061 77.6561Z"
            fill="#E1E4E5" />
        <path
            d="M904.472 266.458C904.197 267.482 904.805 268.535 905.829 268.809C906.852 269.083 907.905 268.476 908.179 267.452C908.453 266.428 907.846 265.376 906.822 265.101C905.798 264.827 904.746 265.435 904.472 266.458Z"
            fill="#E1E4E5" />
        <path
            d="M876.346 419.026C875.929 420.584 876.854 422.186 878.412 422.604C879.97 423.021 881.572 422.096 881.989 420.538C882.407 418.98 881.482 417.378 879.924 416.961C878.366 416.543 876.764 417.468 876.346 419.026Z"
            fill="#E1E4E5" />
        <path
            d="M747.272 385.864L740.26 392.876C740.005 393.131 740.005 393.545 740.26 393.8L740.261 393.8C740.516 394.056 740.93 394.056 741.185 393.8L748.197 386.789C748.452 386.534 748.452 386.12 748.197 385.865L748.196 385.864C747.941 385.609 747.527 385.609 747.272 385.864Z"
            fill="#E1E4E5" />
        <path
            d="M746.585 390.884L744.563 392.907C744.308 393.162 744.308 393.576 744.563 393.831L744.564 393.831C744.819 394.086 745.233 394.086 745.488 393.831L747.51 391.809C747.765 391.554 747.765 391.14 747.51 390.885L747.509 390.884C747.254 390.629 746.841 390.629 746.585 390.884Z"
            fill="#E1E4E5" />
        <path
            d="M848.64 391.892C848.573 391.795 853.463 388.311 859.568 384.125C865.67 379.931 870.678 376.612 870.745 376.709C870.812 376.806 865.919 380.282 859.817 384.476C853.707 388.672 848.707 391.989 848.64 391.892ZM869.444 355.085H869.514C869.93 360.719 874.301 360.806 874.301 360.806C874.301 360.806 869.481 360.896 869.481 367.406C869.481 360.896 864.659 360.806 864.659 360.806C864.659 360.806 869.029 360.719 869.444 355.085Z"
            fill="#E1E4E5" />
        <path
            d="M644.434 327.749L627.31 390.349L633.419 383.318C631.16 384.521 628.54 385.444 625.639 386.099C622.738 386.754 619.584 387.128 616.282 387.302C612.981 387.475 609.544 387.449 606.016 387.302C602.5 387.155 598.904 386.887 595.255 386.58H595.241C589.854 386.125 585.122 390.109 584.654 395.496C584.213 400.629 587.863 405.174 592.862 405.99C596.631 406.591 600.455 407.153 604.385 407.607C608.315 408.062 612.339 408.396 616.509 408.49C620.68 408.583 624.998 408.423 629.463 407.781C633.914 407.14 638.539 405.976 643.057 404.025C645.945 402.782 648.003 400.402 648.939 397.635L649.153 396.98L669.699 335.409C672.012 328.484 668.269 321.012 661.344 318.699C654.42 316.386 646.947 320.13 644.635 327.054C644.568 327.281 644.488 327.535 644.434 327.749Z"
            fill="#F8AE9D" />
        <path
            d="M682.491 413.744C682.718 415.508 683.494 416.858 684.229 416.751C684.951 416.657 685.365 415.147 685.138 413.396C684.911 411.631 684.135 410.281 683.4 410.388C682.665 410.482 682.264 411.992 682.491 413.744Z"
            fill="#B55E63" />
        <path fill-rule="evenodd" clip-rule="evenodd"
            d="M653.123 391.842C653.123 391.813 653.115 391.784 653.102 391.759C653.088 391.733 653.068 391.711 653.044 391.694C652.818 391.536 652.595 391.372 652.377 391.204C650.829 390.062 650.552 387.421 650.096 383.063C649.944 381.614 649.773 379.976 649.528 378.14C648.552 370.821 647.83 366.448 645.624 356.686C645.458 355.951 645.282 355.214 645.104 354.474C644.461 351.795 643.81 349.087 643.651 346.359C643.639 346.148 643.64 345.936 643.654 345.724C643.735 344.747 643.789 343.768 643.816 342.777C643.843 341.989 643.857 341.201 643.857 340.413V339.693C643.852 338.55 643.841 337.406 643.823 336.263C643.712 328.014 643.649 323.389 649.528 319.317C651.047 318.257 652.973 317.252 655.388 316.22C657.342 315.391 659.608 314.549 662.266 313.666C663.338 313.313 664.491 312.946 665.712 312.565L668.588 311.777L698.3 303.547C698.595 303.465 698.901 303.437 699.206 303.451C700.725 303.53 702.242 303.628 703.758 303.746C704.215 303.781 704.699 303.817 705.203 303.858C707.726 304.062 710.833 304.347 714.211 304.755C715.2 304.868 716.225 305.004 717.262 305.141L717.52 305.176C720.967 305.638 723.747 306.806 725.945 308.491C729.839 311.479 731.942 316.124 732.715 321.518C733.149 324.547 733.176 327.807 732.877 331.148C732.756 332.481 732.589 333.808 732.375 335.129C732.184 336.336 731.954 337.537 731.684 338.728C730.892 342.29 730.199 345.873 729.608 349.473L729.364 350.94C729.314 351.276 729.262 351.615 729.209 351.956C729.147 352.358 729.083 352.763 729.025 353.168C727.397 364.009 726.596 374.536 726.759 381.94V381.948L726.8 383.271C726.99 388.256 727.56 393.839 728.631 400.047C728.691 400.36 728.746 400.674 728.802 400.989C728.848 401.248 728.895 401.509 728.943 401.772C728.975 401.939 728.981 402.103 728.965 402.261C732.137 405.347 733.639 409.295 730.844 412.994C729.506 414.764 726.108 415.729 723.891 415.814L670.732 417.861C662.701 418.17 654.544 414.65 654.321 406.617C654.291 405.511 654.321 404.321 654.429 403.042C654.429 403.039 654.609 402.855 654.963 402.53C654.085 402.232 653.408 401.434 653.408 400.428C653.4 399.128 653.378 397.828 653.339 396.529C653.307 395.238 653.253 393.947 653.177 392.658C653.163 392.372 653.15 392.1 653.123 391.842Z"
            fill="white" />
        <mask id="mask0_1034_2" style="mask-type:luminance" maskUnits="userSpaceOnUse" x="643"
            y="303" width="91" height="115">
            <path fill-rule="evenodd" clip-rule="evenodd"
                d="M653.123 391.842C653.123 391.813 653.115 391.784 653.102 391.759C653.088 391.733 653.068 391.711 653.044 391.694C652.818 391.536 652.595 391.372 652.377 391.204C650.829 390.062 650.552 387.421 650.096 383.063C649.944 381.614 649.773 379.976 649.528 378.14C648.552 370.821 647.83 366.448 645.624 356.686C645.458 355.951 645.282 355.214 645.104 354.474C644.461 351.795 643.81 349.087 643.651 346.359C643.639 346.148 643.64 345.936 643.654 345.724C643.735 344.747 643.789 343.768 643.816 342.777C643.843 341.989 643.857 341.201 643.857 340.413V339.693C643.852 338.55 643.841 337.406 643.823 336.263C643.712 328.014 643.649 323.389 649.528 319.317C651.047 318.257 652.973 317.252 655.388 316.22C657.342 315.391 659.608 314.549 662.266 313.666C663.338 313.313 664.491 312.946 665.712 312.565L668.588 311.777L698.3 303.547C698.595 303.465 698.901 303.437 699.206 303.451C700.725 303.53 702.242 303.628 703.758 303.746C704.215 303.781 704.699 303.817 705.203 303.858C707.726 304.062 710.833 304.347 714.211 304.755C715.2 304.868 716.225 305.004 717.262 305.141L717.52 305.176C720.967 305.638 723.747 306.806 725.945 308.491C729.839 311.479 731.942 316.124 732.715 321.518C733.149 324.547 733.176 327.807 732.877 331.148C732.756 332.481 732.589 333.808 732.375 335.129C732.184 336.336 731.954 337.537 731.684 338.728C730.892 342.29 730.199 345.873 729.608 349.473L729.364 350.94C729.314 351.276 729.262 351.615 729.209 351.956C729.147 352.358 729.083 352.763 729.025 353.168C727.397 364.009 726.596 374.536 726.759 381.94V381.948L726.8 383.271C726.99 388.256 727.56 393.839 728.631 400.047C728.691 400.36 728.746 400.674 728.802 400.989C728.848 401.248 728.895 401.509 728.943 401.772C728.975 401.939 728.981 402.103 728.965 402.261C732.137 405.347 733.639 409.295 730.844 412.994C729.506 414.764 726.108 415.729 723.891 415.814L670.732 417.861C662.701 418.17 654.544 414.65 654.321 406.617C654.291 405.511 654.321 404.321 654.429 403.042C654.429 403.039 654.609 402.855 654.963 402.53C654.085 402.232 653.408 401.434 653.408 400.428C653.4 399.128 653.378 397.828 653.339 396.529C653.307 395.238 653.253 393.947 653.177 392.658C653.163 392.372 653.15 392.1 653.123 391.842Z"
                fill="white" />
        </mask>
        <g mask="url(#mask0_1034_2)">
            <path
                d="M653.123 391.843L650.199 392.15L650.183 391.997V391.843H653.123ZM652.377 391.204L654.122 388.839L654.143 388.854L654.164 388.87L652.377 391.204ZM643.654 345.724L640.72 345.523L640.722 345.502L640.724 345.481L643.654 345.724ZM643.816 342.777L640.878 342.696V342.686L640.879 342.676L643.816 342.777ZM643.857 339.693L646.797 339.686V339.693H643.857ZM649.528 319.317L651.21 321.729L651.202 321.734L649.528 319.317ZM655.388 316.22L654.233 313.517L654.24 313.513L655.388 316.22ZM662.266 313.666L661.34 310.876L661.346 310.874L662.266 313.666ZM665.712 312.566L664.838 309.759L664.887 309.744L664.935 309.73L665.712 312.566ZM668.588 311.778L669.373 314.611L669.365 314.613L668.588 311.778ZM699.207 303.451L699.082 306.388H699.073L699.207 303.451ZM702.91 303.682L703.114 300.749L703.127 300.75L703.14 300.75L702.91 303.682ZM705.203 303.858L704.966 306.788H704.962L705.203 303.858ZM714.211 304.755L713.878 307.676L713.868 307.675L713.859 307.673L714.211 304.755ZM717.521 305.176L717.908 302.262L717.912 302.262L717.521 305.176ZM725.945 308.491L727.734 306.157L727.736 306.159L725.945 308.491ZM732.878 331.149L735.806 331.41L735.805 331.42L732.878 331.149ZM732.376 335.129L729.472 334.668L729.473 334.662L729.474 334.656L732.376 335.129ZM731.684 338.729L728.815 338.087L728.817 338.078L731.684 338.729ZM729.608 349.474L732.509 349.953V349.956L729.608 349.474ZM729.364 350.941L726.456 350.511L726.46 350.484L726.464 350.458L729.364 350.941ZM729.025 353.168L731.935 353.591L731.933 353.598L731.933 353.605L729.025 353.168ZM726.76 381.94L723.821 382.029L723.82 382.016V382.005L726.76 381.94ZM726.8 383.271L723.862 383.383V383.373L723.861 383.363L726.8 383.271ZM728.632 400.047L725.743 400.597L725.739 400.572L725.734 400.548L728.632 400.047ZM728.943 401.772L726.055 402.32L726.053 402.31L728.943 401.772ZM728.965 402.261L726.915 404.369L725.898 403.379L726.04 401.967L728.965 402.261ZM654.43 403.042H657.37V403.166L657.359 403.29L654.43 403.042ZM654.963 402.53L655.91 399.747L660.612 401.345L656.949 404.699L654.963 402.53ZM653.408 400.428L656.347 400.4L656.348 400.413V400.428H653.408ZM653.34 396.529L650.402 396.629L650.401 396.619V396.61L653.34 396.529ZM653.177 392.658L650.243 392.841L650.242 392.819L650.24 392.797L653.177 392.658ZM654.72 389.278C655.134 389.565 655.473 389.949 655.707 390.395C655.941 390.842 656.063 391.339 656.063 391.843H650.183C650.183 392.765 650.641 393.604 651.368 394.109L654.72 389.278ZM654.164 388.87C654.442 389.083 654.639 389.222 654.72 389.278L651.369 394.109C651.105 393.926 650.844 393.735 650.589 393.538L654.164 388.87ZM653.02 382.757C653.256 385.01 653.422 386.54 653.688 387.661C653.956 388.791 654.197 388.893 654.122 388.839L650.631 393.57C649.01 392.373 648.338 390.584 647.967 389.018C647.593 387.444 647.393 385.474 647.172 383.37L653.02 382.757ZM652.442 377.751C652.693 379.634 652.869 381.31 653.02 382.757L647.172 383.37C647.02 381.919 646.853 380.319 646.614 378.528L652.442 377.751ZM648.492 356.039C650.717 365.886 651.455 370.347 652.442 377.751L646.614 378.528C645.649 371.297 644.943 367.009 642.757 357.334L648.492 356.039ZM647.963 353.788C648.14 354.525 648.321 355.281 648.492 356.039L642.757 357.334C642.596 356.621 642.423 355.903 642.246 355.161L647.963 353.788ZM646.587 346.189C646.728 348.611 647.308 351.062 647.963 353.788L642.246 355.161C641.613 352.527 640.893 349.563 640.717 346.53L646.587 346.189ZM646.587 345.926C646.582 346 646.581 346.087 646.587 346.189L640.717 346.53C640.697 346.195 640.698 345.858 640.72 345.523L646.587 345.926ZM646.756 342.857C646.727 343.896 646.67 344.933 646.584 345.968L640.724 345.481C640.801 344.557 640.852 343.633 640.878 342.696L646.756 342.857ZM646.797 340.413C646.797 341.235 646.783 342.057 646.755 342.878L640.879 342.676C640.904 341.921 640.917 341.167 640.917 340.413H646.797ZM646.797 340.237V340.413H640.917V340.237H646.797ZM646.797 339.693V340.237H640.917V339.693H646.797ZM646.764 336.224C646.778 337.301 646.794 338.457 646.797 339.686L640.917 339.701C640.915 338.51 640.899 337.384 640.884 336.304L646.764 336.224ZM651.202 321.734C648.789 323.405 647.786 325.009 647.274 326.968C646.692 329.195 646.706 331.961 646.764 336.224L640.884 336.304C640.83 332.316 640.757 328.646 641.585 325.48C642.483 322.046 644.388 319.301 647.854 316.901L651.202 321.734ZM656.544 318.923C654.228 319.913 652.502 320.828 651.21 321.729L647.846 316.906C649.593 315.687 651.72 314.591 654.233 313.517L656.544 318.923ZM663.193 316.456C660.588 317.321 658.399 318.136 656.536 318.926L654.24 313.513C656.284 312.646 658.627 311.777 661.34 310.876L663.193 316.456ZM666.587 315.373C665.45 315.726 664.317 316.087 663.186 316.458L661.346 310.874C662.438 310.514 663.607 310.142 664.838 309.759L666.587 315.373ZM669.365 314.613L666.489 315.401L664.935 309.73L667.811 308.942L669.365 314.613ZM699.085 306.381L669.373 314.611L667.803 308.944L697.515 300.714L699.085 306.381ZM699.073 306.388C699.065 306.387 699.058 306.387 699.05 306.388C699.052 306.387 699.064 306.386 699.085 306.381L697.515 300.714C698.109 300.551 698.725 300.484 699.34 300.514L699.073 306.388ZM702.707 306.615C701.499 306.527 700.291 306.451 699.082 306.388L699.332 300.514C700.014 300.542 701.355 300.627 703.114 300.749L702.707 306.615ZM703.538 306.678L702.68 306.613L703.14 300.75C703.405 300.772 703.684 300.792 703.978 300.814L703.538 306.678ZM704.962 306.788C704.471 306.748 703.997 306.713 703.538 306.678L703.978 300.814C704.435 300.849 704.928 300.886 705.444 300.928L704.962 306.788ZM713.859 307.673C710.53 307.272 707.464 306.991 704.966 306.788L705.439 300.928C707.988 301.133 711.136 301.422 714.563 301.836L713.859 307.673ZM716.875 308.056C715.877 307.92 714.878 307.793 713.878 307.676L714.544 301.834C715.566 301.951 716.617 302.09 717.65 302.227L716.875 308.056ZM717.134 308.09L716.875 308.056L717.65 302.227L717.908 302.262L717.134 308.09ZM724.157 310.824C722.408 309.483 720.121 308.491 717.13 308.09L717.912 302.262C721.812 302.785 725.088 304.129 727.734 306.157L724.157 310.824ZM729.805 321.935C729.099 317.013 727.242 313.192 724.155 310.823L727.736 306.159C732.436 309.766 734.784 315.237 735.625 321.1L729.805 321.935ZM729.949 330.888C730.232 327.723 730.2 324.695 729.805 321.935L735.625 321.1C736.098 324.399 736.121 327.892 735.806 331.41L729.949 330.888ZM729.474 334.656C729.679 333.401 729.833 332.138 729.95 330.877L735.805 331.42C735.678 332.819 735.502 334.214 735.277 335.602L729.474 334.656ZM728.817 338.078C729.073 336.948 729.292 335.803 729.472 334.668L735.28 335.59C735.078 336.861 734.835 338.125 734.551 339.38L728.817 338.078ZM726.707 348.994C727.308 345.34 728.011 341.702 728.815 338.087L734.553 339.37C733.773 342.878 733.092 346.407 732.509 349.953L726.707 348.994ZM726.464 350.458L726.708 348.991L732.509 349.956L732.264 351.424L726.464 350.458ZM726.304 351.505C726.357 351.163 726.407 350.835 726.456 350.511L732.273 351.371C732.221 351.719 732.167 352.068 732.114 352.406L726.304 351.505ZM726.116 352.746C726.177 352.325 726.241 351.906 726.304 351.505L732.114 352.406C732.052 352.812 731.991 353.203 731.935 353.591L726.116 352.746ZM723.82 382.005C723.653 374.382 724.474 363.677 726.118 352.732L731.933 353.605C730.321 364.34 729.541 374.691 729.699 381.875L723.82 382.005ZM723.821 382.037V382.029L729.698 381.851V381.86L723.821 382.037ZM723.861 383.363L723.821 382.037L729.698 381.859L729.739 383.179L723.861 383.363ZM725.734 400.548C724.642 394.221 724.058 388.508 723.862 383.383L729.738 383.159C729.922 388.005 730.477 393.458 731.529 399.548L725.734 400.548ZM725.908 401.502C725.851 401.184 725.799 400.889 725.743 400.597L731.519 399.498C731.583 399.832 731.642 400.164 731.697 400.476L725.908 401.502ZM726.053 402.31C726.002 402.032 725.953 401.759 725.908 401.502L731.697 400.476C731.744 400.737 731.788 400.986 731.834 401.236L726.053 402.31ZM726.04 401.967C726.028 402.089 726.034 402.208 726.055 402.32L731.833 401.226C731.916 401.67 731.935 402.118 731.891 402.555L726.04 401.967ZM731.015 400.154C732.849 401.938 734.417 404.171 735.008 406.738C735.627 409.43 735.105 412.232 733.189 414.767L728.499 411.222C729.378 410.058 729.503 409.035 729.278 408.057C729.023 406.954 728.254 405.67 726.915 404.369L731.015 400.154ZM733.189 414.767C732.018 416.317 730.206 417.249 728.707 417.798C727.135 418.372 725.429 418.697 724.004 418.752L723.778 412.876C724.57 412.846 725.672 412.646 726.688 412.275C727.777 411.877 728.332 411.441 728.499 411.222L733.189 414.767ZM724.004 418.752L670.844 420.799L670.619 414.924L723.778 412.876L724.004 418.752ZM670.844 420.799C666.42 420.969 661.769 420.102 658.084 417.887C654.296 415.61 651.526 411.873 651.383 406.698L657.261 406.535C657.34 409.394 658.76 411.433 661.113 412.847C663.571 414.325 667.012 415.063 670.619 414.924L670.844 420.799ZM651.383 406.698C651.349 405.481 651.383 404.18 651.501 402.794L657.359 403.29C657.266 404.369 657.233 405.453 657.261 406.535L651.383 406.698ZM651.49 403.042C651.49 402.531 651.623 402.029 651.876 401.586C651.951 401.454 652.02 401.357 652.046 401.321C652.106 401.238 652.157 401.177 652.172 401.159C652.211 401.112 652.244 401.076 652.253 401.066L652.308 401.007L652.369 400.943L652.51 400.804C652.622 400.694 652.779 400.545 652.978 400.362L656.949 404.699C656.794 404.84 656.684 404.946 656.618 405.011C656.584 405.043 656.565 405.063 656.558 405.07L656.569 405.059L656.611 405.012C656.754 404.855 656.879 404.682 656.985 404.498C657.021 404.433 657.09 404.306 657.158 404.137C657.189 404.057 657.251 403.869 657.281 403.761C657.314 403.613 657.362 403.253 657.37 403.042H651.49ZM656.348 400.428C656.348 400.248 656.281 400.075 656.186 399.95C656.116 399.857 656.02 399.786 655.91 399.747L654.017 405.314C652.109 404.665 650.468 402.857 650.468 400.428H656.348ZM656.278 396.429C656.32 397.667 656.334 399.007 656.347 400.4L650.468 400.456C650.461 399.18 650.439 397.904 650.402 396.629L656.278 396.429ZM656.111 392.475C656.182 393.606 656.238 394.947 656.279 396.448L650.401 396.61C650.361 395.151 650.308 393.883 650.243 392.841L656.111 392.475ZM656.047 391.535C656.084 391.89 656.101 392.244 656.114 392.518L650.24 392.797C650.232 392.581 650.219 392.365 650.199 392.15L656.047 391.535Z"
                fill="#E1E4E5" />
        </g>
        <path
            d="M698.092 304.903C698.092 304.903 695.432 314.969 685.379 317.763C672.6 321.305 670.675 317.014 670.675 317.014C670.996 315.183 671.103 313.392 671.023 311.493C670.99 310.756 670.932 310.02 670.848 309.287C670.621 307.229 670.193 304.983 669.592 302.417C669.458 301.815 669.298 301.187 669.138 300.545L669.124 300.465C677.867 297.177 684.724 292.244 688.922 284.945L690.165 283.97L691.007 283.301L691.248 283.809L691.288 285.506C691.461 293.487 692.812 298.206 698.092 304.903ZM701.655 320.828L682.453 391.627L689.3 383.676C686.767 385.038 683.831 386.073 680.583 386.82C677.335 387.553 673.788 387.985 670.099 388.169C666.396 388.365 662.538 388.326 658.589 388.169C654.639 387.999 650.612 387.71 646.519 387.357H646.493C640.452 386.833 635.139 391.352 634.619 397.443C634.126 403.245 638.218 408.393 643.831 409.311C648.052 409.992 652.353 410.634 656.757 411.144C661.16 411.655 665.682 412.048 670.359 412.153C675.036 412.258 679.882 412.074 684.883 411.341C689.885 410.607 695.068 409.297 700.135 407.097C703.382 405.682 705.682 402.997 706.735 399.879L706.982 399.146L730.002 329.499C732.588 321.666 728.404 313.217 720.635 310.597C712.879 307.991 704.487 312.208 701.889 320.042C701.811 320.29 701.72 320.592 701.655 320.828Z"
            fill="#F8AE9D" />
        <path fill-rule="evenodd" clip-rule="evenodd"
            d="M475.485 418.809V415.103C475.485 412.976 477.622 411.252 480.247 411.242H811.106C813.745 411.242 815.868 412.976 815.868 415.103V418.809C815.868 420.946 813.731 422.67 811.106 422.67H796.292C795.289 422.67 794.328 423.068 793.619 423.777C792.91 424.486 792.512 425.447 792.512 426.45C792.512 427.109 791.43 427.64 790.093 427.64H492.302C490.978 427.64 489.896 427.109 489.896 426.45C489.896 425.447 489.498 424.486 488.789 423.777C488.08 423.068 487.119 422.67 486.116 422.67H480.247C477.608 422.67 475.485 420.946 475.485 418.809Z"
            fill="white" />
        <path
            d="M480.247 411.241L480.241 409.771H480.247V411.241ZM476.956 415.102V418.809H474.016V415.102H476.956ZM480.253 412.711C478.127 412.72 476.956 414.064 476.956 415.102H474.016C474.016 411.888 477.117 409.783 480.241 409.771L480.253 412.711ZM811.106 412.711H480.247V409.771H811.106V412.711ZM814.398 415.102C814.398 414.057 813.233 412.711 811.106 412.711V409.771C814.258 409.771 817.338 411.894 817.338 415.102H814.398ZM814.398 418.809V415.102H817.338V418.809H814.398ZM811.106 421.2C813.225 421.2 814.398 419.859 814.398 418.809H817.338C817.338 422.032 814.238 424.14 811.106 424.14V421.2ZM796.292 421.2H811.106V424.14H796.292V421.2ZM790.094 426.169C790.587 426.169 790.961 426.068 791.156 425.972C791.253 425.924 791.25 425.906 791.208 425.955C791.156 426.015 791.042 426.186 791.042 426.449H793.982C793.982 427.647 793.039 428.322 792.452 428.611C791.772 428.945 790.936 429.109 790.094 429.109V426.169ZM492.302 426.169H790.094V429.109H492.302V426.169ZM491.366 426.449C491.366 426.186 491.253 426.016 491.201 425.956C491.159 425.906 491.157 425.925 491.253 425.973C491.447 426.069 491.817 426.169 492.302 426.169V429.109C491.464 429.109 490.631 428.944 489.953 428.61C489.368 428.321 488.426 427.646 488.426 426.449H491.366ZM480.247 421.2H486.117V424.14H480.247V421.2ZM476.956 418.809C476.956 419.862 478.118 421.2 480.247 421.2V424.14C477.098 424.14 474.016 422.03 474.016 418.809H476.956ZM488.426 426.449C488.426 426.146 488.366 425.846 488.25 425.566C488.134 425.285 487.964 425.031 487.75 424.816C487.535 424.602 487.281 424.432 487 424.316C486.72 424.2 486.42 424.14 486.117 424.14V421.2C486.806 421.2 487.489 421.336 488.126 421.599C488.763 421.863 489.341 422.25 489.829 422.737C490.316 423.225 490.703 423.804 490.967 424.44C491.23 425.077 491.366 425.76 491.366 426.449H488.426ZM796.292 424.14C795.989 424.14 795.688 424.2 795.408 424.316C795.128 424.432 794.873 424.602 794.659 424.816C794.444 425.031 794.274 425.285 794.158 425.566C794.042 425.846 793.982 426.146 793.982 426.449H791.042C791.042 425.057 791.595 423.722 792.58 422.738C793.564 421.753 794.9 421.2 796.292 421.2V424.14Z"
            fill="#E1E4E5" />
        <path
            d="M515.53 319.34L531.036 384.922L531.451 386.646L532.494 391.058C532.712 391.986 533.237 392.813 533.985 393.405C534.732 393.997 535.657 394.319 536.61 394.32H641.079C643.806 394.32 645.838 391.766 645.21 389.107L628.246 317.389C628.027 316.461 627.502 315.634 626.755 315.042C626.008 314.45 625.082 314.127 624.129 314.127H519.661C516.92 314.141 514.901 316.694 515.53 319.34Z"
            fill="#8C34B1" />
        <path
            d="M566.287 357.037C566.781 361.555 570.844 365.205 575.363 365.205C579.881 365.205 583.13 361.542 582.635 357.037C582.141 352.519 578.077 348.87 573.558 348.87C569.04 348.87 565.792 352.519 566.287 357.037Z"
            fill="white" />
        <path
            d="M619.972 314.139L638.032 394.331H641.079C643.806 394.331 645.825 391.779 645.196 389.118L628.233 317.4C628.014 316.473 627.489 315.646 626.741 315.054C625.994 314.462 625.069 314.14 624.116 314.139H619.972ZM589.786 393.682L592.651 409.713H583.184L580.319 393.682H589.786Z"
            fill="#402A49" />
        <path
            d="M605.812 408.266L603.673 405.258C603.294 404.729 602.795 404.298 602.216 404C601.637 403.702 600.995 403.547 600.344 403.547H571.644C570.899 403.545 570.168 403.749 569.531 404.136C568.894 404.523 568.377 405.078 568.035 405.74L566.591 408.506C565.909 409.804 566.858 411.341 568.315 411.341H604.221C605.799 411.341 606.721 409.549 605.812 408.266Z"
            fill="#402A49" />
        <path fill-rule="evenodd" clip-rule="evenodd"
            d="M681.8 284.75V296.419L690.333 289.519C690.333 289.519 692.955 278.338 695.088 270.034C696.426 264.827 699.685 247.203 686.565 248.029C675.818 229.001 644.519 240.777 644.27 264.023C650.261 297.795 645.188 308.52 645.188 308.52C662.887 309.54 671.875 301.318 681.8 284.75Z"
            fill="#402A49" />
        <path fill-rule="evenodd" clip-rule="evenodd"
            d="M669.396 280.32L670.855 290.496L662.552 285.545C662.552 285.545 658.868 276.123 655.97 269.148C654.153 264.774 649.109 249.814 660.653 248.895C667.647 230.96 696.411 237.318 699.534 257.558C698.529 287.755 704.292 296.474 704.292 296.474C688.986 299.575 680.121 293.528 669.396 280.32Z"
            fill="#402A49" />
        <path
            d="M664.592 302.865C664.592 302.865 693.521 300.048 691.488 282.058C689.455 264.068 691.816 251.589 673.262 252.629C654.708 253.669 651.895 260.936 651.116 267.105C650.336 273.275 657.018 303.134 664.592 302.865Z"
            fill="#F8AE9D" />
        <path fill-rule="evenodd" clip-rule="evenodd"
            d="M690.471 272.032C686.806 272.626 687.25 275.011 686.254 274.802C681.192 273.745 660.704 275.139 658.066 264.07C654.784 270.986 653.982 272.686 646.754 274.542V254.278L692.469 249.969C692.469 249.969 691.759 271.822 690.471 272.032Z"
            fill="#402A49" />
        <path
            d="M863.836 275.014L851.511 287.327L845.523 281.357M476.29 211.757L463.965 224.071L457.977 218.1M496.308 326.259L483.983 338.573L477.995 332.602M751.736 275.814L739.411 288.127L733.423 282.158M449.866 369.498L437.541 381.811L431.553 375.841M485.098 149.301L472.773 161.615L466.785 155.644M747.733 142.095L735.407 154.408L729.419 148.439"
            stroke="#E1E4E5" stroke-width="4" stroke-linecap="round" stroke-linejoin="round" />
    </g>
    <path fill-rule="evenodd" clip-rule="evenodd"
        d="M242.647 61.0144C242.679 61.1323 242.696 61.2539 242.696 61.3761V80.3661C242.696 80.6099 242.631 80.8493 242.508 81.0602C242.385 81.2711 242.207 81.446 241.994 81.5673L225.915 90.7438V108.932C225.915 109.427 225.65 109.884 225.217 110.134L191.653 129.286C191.576 129.33 191.493 129.357 191.409 129.387C191.377 129.397 191.348 129.416 191.315 129.425C191.08 129.486 190.833 129.486 190.599 129.425C190.56 129.414 190.525 129.394 190.489 129.38C190.412 129.352 190.332 129.328 190.258 129.286L156.702 110.134C156.489 110.012 156.312 109.837 156.188 109.626C156.065 109.416 156 109.176 156 108.932V51.9625C156 51.8379 156.017 51.7167 156.049 51.599C156.059 51.5592 156.084 51.5229 156.098 51.483C156.124 51.4104 156.148 51.3359 156.187 51.2684C156.213 51.2234 156.251 51.1871 156.283 51.1455C156.323 51.0902 156.36 51.033 156.407 50.9846C156.447 50.9448 156.499 50.9154 156.545 50.8807C156.595 50.8392 156.641 50.7942 156.698 50.7613H156.7L173.479 41.185C173.692 41.0638 173.932 41 174.178 41C174.423 41 174.664 41.0638 174.876 41.185L191.655 50.7613H191.659C191.714 50.7959 191.762 50.8392 191.812 50.879C191.858 50.9136 191.908 50.9448 191.948 50.9829C191.997 51.033 192.032 51.0902 192.074 51.1455C192.104 51.1871 192.144 51.2234 192.168 51.2684C192.209 51.3377 192.231 51.4104 192.259 51.483C192.273 51.5229 192.298 51.5592 192.308 51.6007C192.34 51.7187 192.357 51.8403 192.357 51.9625V87.5454L206.339 79.5648V61.3744C206.339 61.2532 206.356 61.1304 206.388 61.0144C206.4 60.9729 206.423 60.9365 206.437 60.8967C206.465 60.824 206.489 60.7496 206.527 60.6821C206.554 60.6371 206.592 60.6007 206.622 60.5592C206.664 60.5038 206.699 60.4467 206.747 60.3982C206.788 60.3584 206.838 60.329 206.884 60.2944C206.936 60.2529 206.981 60.2079 207.037 60.175H207.039L223.82 50.5986C224.032 50.4773 224.273 50.4134 224.518 50.4134C224.763 50.4134 225.004 50.4773 225.217 50.5986L241.996 60.175C242.055 60.2096 242.1 60.2529 242.153 60.2927C242.197 60.3273 242.247 60.3584 242.287 60.3965C242.336 60.4467 242.371 60.5038 242.413 60.5592C242.444 60.6007 242.483 60.6371 242.507 60.6821C242.547 60.7496 242.57 60.824 242.598 60.8967C242.614 60.9365 242.637 60.9729 242.647 61.0144ZM239.899 79.5648V63.7732L234.027 67.124L225.915 71.7538V87.5454L239.901 79.5648H239.899ZM223.12 108.131V92.3292L215.141 96.8465L192.355 109.737V125.688L223.12 108.131ZM158.797 54.3596V108.131L189.558 125.686V109.739L173.488 100.723L173.483 100.72L173.476 100.717C173.422 100.685 173.376 100.64 173.326 100.602C173.282 100.568 173.231 100.54 173.193 100.502L173.189 100.497C173.144 100.453 173.113 100.4 173.074 100.351C173.039 100.305 172.997 100.265 172.969 100.216L172.968 100.211C172.936 100.159 172.917 100.097 172.894 100.038C172.872 99.9861 172.842 99.9377 172.828 99.8823V99.8805C172.81 99.8148 172.807 99.7455 172.8 99.678C172.793 99.6261 172.779 99.5742 172.779 99.5223V99.5188V62.3402L164.669 57.7086L158.797 54.3613V54.3596ZM174.179 43.9854L160.199 51.9625L174.176 59.9396L188.154 51.9607L174.176 43.9854H174.179ZM181.45 93.7692L189.56 89.1411V54.3596L183.688 57.7104L175.576 62.3402V97.1217L181.45 93.7692ZM224.518 53.399L210.54 61.3761L224.518 69.3532L238.495 61.3744L224.518 53.399ZM223.12 71.7538L215.008 67.124L209.136 63.7732V79.5648L217.246 84.1929L223.12 87.5454V71.7538ZM190.955 107.34L211.458 95.7371L221.707 89.939L207.739 81.9671L191.657 91.1454L176.999 99.5102L190.955 107.34Z"
        fill="#FF2D20" />
    <mask id="mask1_1034_2" style="mask-type:luminance" maskUnits="userSpaceOnUse" x="45" y="41"
        width="90" height="90">
        <path d="M135 41H45V131H135V41Z" fill="white" />
    </mask>
    <g mask="url(#mask1_1034_2)">
        <path
            d="M99.357 85.227L113.797 61.5588C113.975 61.2822 114.072 60.9611 114.076 60.6321C114.067 60.1782 113.878 59.7464 113.552 59.431C113.225 59.1156 112.787 58.9422 112.333 58.9488V58.9404C112.333 58.9404 104.839 61.5843 97.3437 61.5843C89.8488 61.5843 82.3545 58.9404 82.3545 58.9404V58.9488C81.9005 58.9422 81.4624 59.1156 81.1358 59.431C80.8092 59.7464 80.6207 60.1782 80.6115 60.6321C80.6242 60.9702 80.7265 61.2988 80.9079 61.5843L95.331 85.227C95.5812 85.5153 95.8905 85.7464 96.2378 85.9048C96.5851 86.0632 96.9624 86.1452 97.3441 86.1452C97.7259 86.1452 98.1031 86.0632 98.4504 85.9048C98.7978 85.7464 99.1067 85.5153 99.357 85.227Z"
            fill="#8C34B1" />
        <mask id="mask2_1034_2" style="mask-type:luminance" maskUnits="userSpaceOnUse" x="45" y="41"
            width="90" height="90">
            <path d="M45 41H135V131H45V41Z" fill="white" />
        </mask>
        <g mask="url(#mask2_1034_2)">
            <path
                d="M127.895 71.2693C127.895 68.5978 125.824 66.433 123.257 66.433C122.15 66.452 121.085 66.8626 120.252 67.5918C119.419 68.321 118.871 69.3219 118.705 70.4167C118.705 70.4167 117.393 79.2934 115.01 88.6204C113.845 93.1771 109.44 94.6504 108.625 94.6504H89.2035C83.7846 94.6504 81.8283 89.0608 81.6672 88.6726C81.6105 88.5163 75.8031 71.9848 73.3731 62.7193C69.8394 49.2238 55.7802 51.616 55.7802 51.616C54.7314 51.8385 53.7921 52.4173 53.122 53.2541C52.4518 54.0909 52.0922 55.134 52.1043 56.206C52.093 56.824 52.2044 57.438 52.4319 58.0127C52.6595 58.5873 52.9987 59.1112 53.43 59.5539C53.8612 59.9966 54.376 60.3494 54.9445 60.5919C55.513 60.8344 56.124 60.9618 56.742 60.9667C57.1011 60.9516 57.4573 60.8944 57.8031 60.7963C58.869 60.5785 63.1509 60.0004 64.4583 64.7848C67.0824 74.3863 72.7335 91.2922 72.9987 92.0215C74.5239 96.1426 79.6587 104.124 89.2035 104.124H108.625C112.859 104.124 121.518 100.581 123.967 91.0078C126.293 81.9256 127.895 71.5486 127.895 71.2693Z"
                fill="#8C34B1" />
            <path
                d="M94.3486 116.494C94.3491 117.929 93.924 119.332 93.1271 120.525C92.3302 121.718 91.1972 122.649 89.8715 123.198C88.5458 123.748 87.0869 123.891 85.6794 123.612C84.2719 123.332 82.979 122.641 81.9643 121.626C80.9495 120.611 80.2585 119.319 79.9787 117.911C79.6988 116.504 79.8426 115.045 80.392 113.719C80.9414 112.393 81.8716 111.26 83.065 110.463C84.2584 109.666 85.6613 109.241 87.0964 109.242C89.0197 109.242 90.8642 110.006 92.2242 111.366C93.5843 112.726 94.3484 114.57 94.3486 116.494Z"
                fill="#8C34B1" />
            <path
                d="M117.736 117.104C117.737 118.539 117.312 119.942 116.515 121.135C115.718 122.329 114.585 123.259 113.259 123.808C111.933 124.358 110.475 124.502 109.067 124.222C107.66 123.942 106.367 123.251 105.352 122.237C104.337 121.222 103.646 119.929 103.366 118.521C103.086 117.114 103.23 115.655 103.78 114.329C104.329 113.004 105.259 111.871 106.453 111.074C107.646 110.277 109.049 109.852 110.484 109.852C112.407 109.852 114.252 110.616 115.612 111.976C116.972 113.336 117.736 115.181 117.736 117.104Z"
                fill="#8C34B1" />
        </g>
    </g>
    <path
        d="M492.84 455.368H521.352C530.76 455.368 535.464 459.336 535.464 467.272V484.936C535.464 492.872 530.76 496.84 521.352 496.84H509.64V517H492.84V455.368ZM518.664 482.728V469.48C518.664 468.072 517.864 467.368 516.264 467.368H509.64V484.84H516.264C517.864 484.84 518.664 484.136 518.664 482.728ZM563.487 469.096H579.519V517H563.199V511.816C561.983 515.272 559.167 517 554.751 517H553.023C544.511 517 540.255 513.032 540.255 505.096V481C540.255 473.064 544.511 469.096 553.023 469.096H554.751C559.679 469.096 562.591 471.144 563.487 475.24V469.096ZM558.975 505H560.607C562.335 505 563.199 504.04 563.199 502.12V483.976C563.199 482.056 562.335 481.096 560.607 481.096H558.975C557.375 481.096 556.575 481.8 556.575 483.208V502.888C556.575 504.296 557.375 505 558.975 505ZM597.713 529.384H589.648V517.576H596.753C598.289 517.576 599.505 517.32 600.401 516.808C601.297 516.296 602.065 515.08 602.705 513.16H596.465L583.312 469.096H600.401L606.257 498.28L611.441 469.096H627.857L615.857 516.04C614.513 520.456 612.465 523.784 609.713 526.024C606.961 528.264 602.961 529.384 597.713 529.384ZM679.396 469.096H681.124C689.636 469.096 693.892 473.064 693.892 481V517H677.572V483.208C677.572 481.8 676.772 481.096 675.172 481.096H673.54C671.812 481.096 670.948 482.056 670.948 483.976V517H654.628V483.208C654.628 481.8 653.828 481.096 652.228 481.096H650.596C648.868 481.096 648.004 482.056 648.004 483.976V517H631.684V469.096H647.716V475.24C648.612 471.144 651.524 469.096 656.452 469.096H658.18C664.132 469.096 668.036 471.112 669.892 475.144C670.404 473.288 671.524 471.816 673.252 470.728C674.98 469.64 677.028 469.096 679.396 469.096ZM714.211 469.096H726.403C731.267 469.096 734.755 470.12 736.867 472.168C738.979 474.216 740.035 477.16 740.035 481V505.096C740.035 508.936 738.979 511.88 736.867 513.928C734.755 515.976 731.267 517 726.403 517H714.211C709.347 517 705.859 515.976 703.747 513.928C701.635 511.88 700.579 508.936 700.579 505.096V481C700.579 477.16 701.635 474.216 703.747 472.168C705.859 470.12 709.347 469.096 714.211 469.096ZM724.003 503.56V482.536C724.003 481.128 723.203 480.424 721.603 480.424H719.011C717.411 480.424 716.611 481.128 716.611 482.536V503.56C716.611 504.968 717.411 505.672 719.011 505.672H721.603C723.203 505.672 724.003 504.968 724.003 503.56ZM772.046 469.096H773.774C782.286 469.096 786.542 473.064 786.542 481V505.096C786.542 513.032 782.286 517 773.774 517H772.046C767.118 517 764.206 514.952 763.31 510.856V517H747.278V452.776H763.598V474.28C764.814 470.824 767.63 469.096 772.046 469.096ZM770.222 502.888V483.208C770.222 481.8 769.422 481.096 767.822 481.096H766.19C764.462 481.096 763.598 482.056 763.598 483.976V502.12C763.598 504.04 764.462 505 766.19 505H767.822C769.422 505 770.222 504.296 770.222 502.888Z"
        fill="#232323" />
    <defs>
        <linearGradient id="paint0_linear_1034_2" x1="527.847" y1="429.98" x2="526.243" y2="253.954"
            gradientUnits="userSpaceOnUse">
            <stop stop-color="white" />
            <stop offset="1" stop-color="#EEEEEE" />
        </linearGradient>
        <linearGradient id="paint1_linear_1034_2" x1="663.097" y1="282.079" x2="662.378"
            y2="202.625" gradientUnits="userSpaceOnUse">
            <stop stop-color="white" />
            <stop offset="1" stop-color="#EEEEEE" />
        </linearGradient>
        <linearGradient id="paint2_linear_1034_2" x1="353.956" y1="382.244" x2="389.777"
            y2="334.521" gradientUnits="userSpaceOnUse">
            <stop stop-color="white" />
            <stop offset="1" stop-color="#EEEEEE" />
        </linearGradient>
        <clipPath id="clip0_1034_2">
            <rect width="661.5" height="441" fill="white" transform="translate(309 30)" />
        </clipPath>
    </defs>
</svg>
    